<?xml version="1.0" standalone="no"?>
<!DOCTYPE svg PUBLIC "-//W3C//DTD SVG 20010904//EN"
 "http://www.w3.org/TR/2001/REC-SVG-20010904/DTD/svg10.dtd">
<svg version="1.0" xmlns="http://www.w3.org/2000/svg"
 width="876.000000pt" height="876.000000pt" viewBox="0 0 876.000000 876.000000"
 preserveAspectRatio="xMidYMid meet">
<metadata>
Created by potrace 1.11, written by Peter Selinger 2001-2013
</metadata>
<g transform="translate(0.000000,876.000000) scale(0.100000,-0.100000)"
fill="#000000" stroke="none">
<path d="M4169 8276 c-2 -2 -49 -6 -104 -10 -55 -3 -111 -8 -125 -10 -40 -7
-124 -19 -135 -20 -47 -6 -130 -20 -180 -32 -33 -7 -71 -15 -85 -17 -14 -3
-45 -10 -70 -17 -25 -7 -52 -13 -60 -15 -127 -25 -459 -143 -645 -231 -44 -21
-82 -38 -85 -39 -17 -3 -214 -112 -278 -152 -29 -18 -57 -33 -62 -33 -6 0 -10
-4 -10 -9 0 -5 -9 -12 -19 -16 -11 -3 -64 -37 -118 -75 -54 -38 -106 -75 -117
-82 -139 -95 -454 -383 -593 -543 -28 -33 -61 -71 -73 -85 -12 -14 -34 -41
-49 -60 -14 -19 -32 -41 -39 -48 -6 -8 -33 -44 -59 -80 -26 -37 -56 -76 -65
-86 -10 -11 -18 -25 -18 -32 0 -7 -4 -14 -8 -16 -10 -4 -128 -192 -181 -288
-202 -366 -362 -811 -426 -1185 -12 -72 -25 -154 -30 -200 -4 -27 -8 -61 -11
-75 -19 -117 -26 -586 -11 -755 5 -49 10 -108 12 -130 4 -39 40 -267 50 -312
3 -13 7 -33 10 -45 3 -13 8 -36 11 -52 2 -16 7 -32 9 -36 2 -3 6 -18 9 -32 7
-40 56 -221 65 -243 5 -11 24 -65 41 -120 18 -55 36 -104 40 -110 4 -5 11 -21
15 -35 24 -85 162 -368 263 -540 128 -220 306 -464 446 -613 14 -15 26 -30 26
-32 0 -7 230 -234 299 -295 41 -36 82 -72 91 -81 21 -20 277 -211 315 -235 17
-10 35 -22 40 -26 19 -15 117 -78 120 -78 2 0 43 -23 92 -51 118 -69 319 -169
338 -169 8 0 15 -4 15 -10 0 -5 6 -10 14 -10 7 0 40 -12 72 -26 131 -58 482
-171 591 -190 15 -3 44 -9 63 -14 19 -5 46 -11 60 -14 14 -3 48 -9 76 -15 28
-5 72 -12 97 -15 25 -3 63 -9 84 -12 222 -36 732 -41 948 -9 17 2 48 7 70 9
526 63 1122 282 1590 584 66 43 274 190 285 202 3 3 28 23 55 44 165 131 375
337 529 521 101 121 206 259 268 355 67 104 92 145 93 150 0 3 14 25 30 50 24
39 176 332 183 353 1 4 9 24 18 45 9 20 29 71 45 112 17 41 34 84 39 95 12 27
70 203 74 223 2 9 6 24 9 32 9 21 29 101 43 167 2 12 8 33 13 45 5 13 9 25 9
28 0 3 3 23 7 45 4 22 9 49 11 60 2 11 8 43 13 70 6 28 13 67 16 87 7 54 14
103 20 141 20 146 28 597 12 767 -8 93 -25 240 -32 280 -3 14 -9 50 -15 80
-16 93 -18 103 -34 175 -8 39 -20 85 -25 103 -5 18 -10 36 -11 40 -13 89 -158
503 -215 612 -7 14 -26 52 -41 85 -57 126 -252 466 -284 495 -3 3 -25 34 -49
70 -25 36 -48 67 -53 68 -4 2 -8 8 -8 13 0 10 1 9 -90 119 -166 202 -348 387
-545 552 -22 18 -42 35 -45 38 -3 3 -48 37 -100 75 -52 39 -96 73 -98 77 -2 5
-7 8 -12 8 -5 0 -48 26 -97 59 -106 71 -333 201 -350 201 -7 0 -13 5 -13 10 0
6 -4 10 -9 10 -5 0 -53 21 -108 46 -109 51 -338 143 -423 169 -30 9 -84 26
-120 37 -36 11 -81 24 -100 28 -154 37 -252 59 -290 65 -25 4 -52 9 -60 10 -8
1 -35 6 -60 10 -25 4 -52 9 -60 10 -8 2 -47 6 -87 10 -40 4 -85 9 -100 11 -32
6 -549 14 -554 10z"/>
</g>
</svg>
